<svg width="104" height="104" viewBox="0 0 104 104" fill="none" xmlns="http://www.w3.org/2000/svg">
<circle cx="52" cy="52" r="52" fill="#101820"/>
<path d="M34.2125 70.8676C30.6922 70.8676 27.6918 69.6265 25.2114 67.1445C22.731 64.6624 21.49 61.662 21.4883 58.1433C21.4883 54.6229 22.7293 51.6226 25.2114 49.1422C27.6935 46.6618 30.6938 45.4208 34.2125 45.4191H63.7328L58.6431 40.3294H49.4816V35.2397H58.5794C59.2581 35.2397 59.9053 35.3669 60.5212 35.6214C61.137 35.8759 61.6774 36.2364 62.1422 36.703L70.9856 45.5463C74.2939 45.8008 77.0508 47.1369 79.2563 49.5545C81.4619 51.9721 82.5646 54.835 82.5646 58.1433C82.5646 61.6637 81.3236 64.6649 78.8415 67.147C76.3595 69.6291 73.3591 70.8693 69.8404 70.8676C66.32 70.8676 63.3197 69.6265 60.8393 67.1445C58.3589 64.6624 57.1179 61.662 57.1162 58.1433C57.1162 57.3799 57.1696 56.6266 57.2765 55.8835C57.3834 55.1404 57.5844 54.4092 57.8796 53.6898L50.8813 60.6882H46.6823C46.0885 63.6572 44.6252 66.096 42.2924 68.0046C39.9596 69.9132 37.2663 70.8676 34.2125 70.8676ZM69.8404 65.7779C71.9611 65.7779 73.7637 65.0356 75.2482 63.5511C76.7327 62.0666 77.4749 60.264 77.4749 58.1433C77.4749 56.0226 76.7327 54.22 75.2482 52.7355C73.7637 51.251 71.9611 50.5088 69.8404 50.5088C67.7197 50.5088 65.9171 51.251 64.4326 52.7355C62.9481 54.22 62.2059 56.0226 62.2059 58.1433C62.2059 60.264 62.9481 62.0666 64.4326 63.5511C65.9171 65.0356 67.7197 65.7779 69.8404 65.7779ZM34.2125 65.7779C35.8243 65.7779 37.2774 65.3113 38.5718 64.3782C39.8663 63.4451 40.7884 62.2151 41.3381 60.6882H34.2125V55.5985H41.3381C40.7867 54.0716 39.8646 52.8416 38.5718 51.9084C37.2791 50.9753 35.826 50.5088 34.2125 50.5088C32.0918 50.5088 30.2892 51.251 28.8047 52.7355C27.3202 54.22 26.578 56.0226 26.578 58.1433C26.578 60.264 27.3202 62.0666 28.8047 63.5511C30.2892 65.0356 32.0918 65.7779 34.2125 65.7779Z" fill="#D9A648"/>
</svg>
