<svg width="104" height="104" viewBox="0 0 104 104" fill="none" xmlns="http://www.w3.org/2000/svg">
<circle cx="52" cy="52" r="52" fill="#101820"/>
<path d="M60.7352 21.4124C56.9496 21.3781 53.4683 24.1117 52.1307 27.8029C50.7823 24.0795 47.2511 21.3345 43.4268 21.4165C41.332 21.4616 39.1498 22.3543 37.188 24.4017C35.5978 26.061 34.7115 28.2535 33.8042 30.4673C31.7246 33.5853 28.9426 35.9117 24.9096 36.8273C25.88 37.711 26.9379 38.1707 28.0506 38.3611C26.083 39.4464 23.3946 40.0461 19.5547 39.8556C22.4007 43.5056 26.8532 44.7471 31.5166 44.6432C39.9343 44.3187 44.1951 40.0228 46.6892 35.6488L48.9377 36.9313C46.1112 41.8882 40.7371 46.8459 31.2915 47.2037C31.2912 47.237 31.2915 47.2703 31.2915 47.3035C31.2915 48.1447 31.4745 49.1613 31.8025 50.3101L31.7678 50.2452L35.8577 66.1716L36.499 60.8165C38.869 65.1781 41.7216 69.7993 44.3366 73.8445L44.5618 67.4494C45.37 72.7891 47.4288 77.6293 49.9773 82.2799C51.2718 84.1525 52.0916 85.2995 52.0916 85.2995C52.0916 85.2995 53.0556 83.9556 54.5698 81.7555C54.5795 81.7417 54.5909 81.726 54.6003 81.7121C57.4785 77.1622 59.8764 72.3877 61.0385 67.0292L60.8912 72.2197C62.1863 70.1864 63.5147 68.0482 64.7947 65.8899V69.8367L70.4143 55.4007C71.7836 52.4082 72.7035 49.7772 72.8621 47.8667C63.7516 46.7691 57.4444 42.0632 54.518 36.9314L56.7667 35.649C59.4982 40.4393 65.9919 45.2055 75.9424 45.5011C78.0338 45.4595 80.0885 44.9988 82.2635 43.9326C80.2084 43.949 78.4539 43.7829 76.9216 43.4561C80.1575 42.7441 82.9631 41.1277 84.7029 38.1919C70.4866 41.1394 72.1776 29.7321 67.0694 24.4016C65.0771 22.3228 62.8589 21.4314 60.7353 21.4122L60.7352 21.4124Z" fill="#D9A648"/>
</svg>
