<svg width="105" height="106" viewBox="0 0 105 106" fill="none" xmlns="http://www.w3.org/2000/svg">
<ellipse cx="52.076" cy="52.5909" rx="52.076" ry="52.5909" fill="#101820"/>
<path d="M32.6689 36.024L45.8109 50.012L50.4279 45.588L35.0956 29.2687L32.8462 29.209M53.6248 52.4925C53.617 52.7938 53.491 53.0795 53.2745 53.287C53.058 53.4944 52.7688 53.6064 52.4705 53.5985C52.1723 53.5906 51.8893 53.4634 51.6839 53.2448C51.4785 53.0262 51.3675 52.7341 51.3754 52.4329C51.3832 52.1316 51.5092 51.8459 51.7257 51.6384C51.9422 51.431 52.2313 51.319 52.5296 51.3269C52.8279 51.3348 53.1109 51.462 53.3163 51.6806C53.5217 51.8992 53.6326 52.1913 53.6248 52.4925ZM70.1409 66.57C70.1096 67.775 69.6056 68.918 68.7397 69.7477C67.8738 70.5774 66.7171 71.0257 65.5239 70.994C64.3308 70.9624 63.1989 70.4533 62.3774 69.5789C61.5558 68.7045 61.1119 67.5363 61.1433 66.3314C61.1746 65.1264 61.6786 63.9834 62.5445 63.1537C63.4104 62.324 64.5671 61.8757 65.7603 61.9074C66.9534 61.939 68.0853 62.448 68.9068 63.3225C69.7284 64.1969 70.1723 65.3651 70.1409 66.57ZM43.1479 65.854C43.1166 67.059 42.6125 68.202 41.7467 69.0317C40.8808 69.8613 39.7241 70.3096 38.5309 70.278C37.3377 70.2463 36.2059 69.7373 35.3843 68.8629C34.5628 67.9885 34.1189 66.8203 34.1502 65.6153C34.1816 64.4104 34.6856 63.2673 35.5515 62.4377C36.4173 61.608 37.5741 61.1597 38.7672 61.1913C39.9604 61.223 41.0922 61.732 41.9138 62.6064C42.7353 63.4809 43.1792 64.649 43.1479 65.854ZM42.5532 57.5637C41.4421 57.0113 40.2126 56.6832 38.8854 56.648C36.4991 56.5847 34.1856 57.4813 32.4539 59.1407C30.7221 60.8 29.7141 63.0861 29.6514 65.496C29.5887 67.9059 30.4766 70.2423 32.1196 71.9911C33.7627 73.74 36.0264 74.758 38.4127 74.8213C40.7991 74.8846 43.1125 73.988 44.8443 72.3287C46.576 70.6694 47.5841 68.3833 47.6467 65.9733C47.6816 64.6331 47.4217 63.3759 46.9338 62.2263L52.3819 57.006L57.5511 62.508C57.0042 63.6301 56.6793 64.8717 56.6444 66.212C56.5817 68.6219 57.4696 70.9583 59.1127 72.7072C60.7557 74.456 63.0194 75.474 65.4058 75.5374C67.7921 75.6007 70.1056 74.704 71.8373 73.0447C73.569 71.3854 74.5771 69.0993 74.6398 66.6894C74.7025 64.2794 73.8146 61.9431 72.1715 60.1942C70.5285 58.4454 68.2648 57.4273 65.8784 57.364C64.5513 57.3288 63.3064 57.5913 62.1681 58.084L56.9989 52.582L73.1585 37.0981L73.3357 30.2831L71.0863 30.2234L42.5532 57.5637Z" fill="#D9A648"/>
</svg>
